<?xml version="1.0" encoding="utf-8"?>
<!-- Generator: Adobe Illustrator 21.1.0, SVG Export Plug-In . SVG Version: 6.00 Build 0)  -->
<svg version="1.1" id="Layer_1" xmlns="http://www.w3.org/2000/svg" xmlns:xlink="http://www.w3.org/1999/xlink" x="0px" y="0px"
	 viewBox="0 0 160 80" style="enable-background:new 0 0 160 80;" xml:space="preserve">
<style type="text/css">
	.st0{fill:#414145;}
</style>
<g id="Type_Italic">
	<polygon class="st0" points="54.9,17.1 51.8,35.1 48.2,35.1 51.4,17.1 44.9,17.1 45.5,14 61.9,14 61.3,17.1 	"/>
	<path class="st0" d="M66,20.3l-2.6,14.9h-3.5l2.6-14.9H66z M67.1,14l-0.5,3.1h-3.5l0.5-3.1H67.1z"/>
	<path class="st0" d="M72.7,20.3l-0.4,2.4c0.7-0.9,1.4-1.5,2.2-1.9c0.8-0.4,1.7-0.6,2.7-0.6c1.6,0,2.7,0.3,3.4,0.8
		c0.5,0.4,0.8,1,0.8,1.8c0.6-1,1.2-1.6,2-2c0.8-0.4,1.8-0.5,2.9-0.5c1.6,0,2.7,0.3,3.4,0.8c0.7,0.5,1.1,1.4,1.1,2.6
		c0,0.5-0.1,1.1-0.2,1.7l-1.7,9.9h-3.5l1.6-9.2c0-0.3,0.1-0.5,0.1-0.8c0-0.3,0.1-0.5,0.1-0.6c0-0.6-0.2-1-0.5-1.2
		c-0.3-0.2-0.9-0.4-1.8-0.4c-0.9,0-1.7,0.2-2.3,0.6c-0.8,0.6-1.4,1.5-1.6,2.8l-1.5,8.8H76l1.6-9.3c0.1-0.3,0.1-0.6,0.1-0.8
		c0-0.2,0.1-0.5,0.1-0.6c0-0.5-0.2-0.9-0.5-1.1c-0.3-0.2-0.9-0.3-1.8-0.3c-1.2,0-2.1,0.3-2.7,0.9c-0.6,0.6-1,1.5-1.2,2.7l-1.5,8.7
		h-3.5l2.6-14.9H72.7z"/>
	<path class="st0" d="M102.4,30.5h3.5c-0.2,2-1.1,3.3-2.5,4.1c-1.1,0.6-2.9,0.9-5.2,0.9c-2,0-3.5-0.3-4.4-1
		c-0.9-0.7-1.3-1.9-1.3-3.6c0-1,0.1-1.7,0.3-3c0.5-2.8,1.3-4.8,2.5-5.9c1.2-1.1,3.1-1.7,5.6-1.7c2.1,0,3.6,0.4,4.5,1.1
		c0.9,0.8,1.4,2,1.4,3.6c0,0.4,0,0.8-0.1,1.3c-0.1,0.5-0.2,1.3-0.3,2.2H96.2c-0.2,0.9-0.3,1.6-0.3,2.2c0,0.8,0.2,1.4,0.6,1.7
		c0.4,0.3,1.1,0.5,2.1,0.5c1.3,0,2.1-0.1,2.7-0.4C102,32.1,102.3,31.4,102.4,30.5 M103.2,26.2c0-0.2,0.1-0.4,0.1-0.6
		c0-0.2,0-0.4,0-0.7c0-0.8-0.2-1.4-0.7-1.7c-0.4-0.3-1.2-0.5-2.2-0.5c-1.2,0-2.1,0.3-2.7,0.8c-0.6,0.5-1,1.4-1.2,2.7H103.2z"/>
	<path class="st0" d="M112.6,28.2l-1.2,6.9h-3.7l3.7-21.1h9c2.4,0,4.1,0.3,5.1,0.9c1.2,0.7,1.8,2,1.8,3.8c0,0.6-0.1,1.4-0.2,2.3
		c-0.5,2.8-1.4,4.7-2.7,5.8c-1.2,1-3.3,1.5-6.1,1.5H112.6z M114.5,17.2l-1.3,7.9h5.6c1.4,0,2.5-0.2,3.1-0.7c0.6-0.5,1.1-1.4,1.3-2.8
		c0.1-0.2,0.1-0.8,0.1-1.1c0-0.2,0-0.8,0-1c0-0.9-0.2-1.5-0.7-1.9c-0.5-0.3-1.3-0.5-2.5-0.5H114.5z"/>
	<path class="st0" d="M132.2,24.7h-3.5c0.3-1.7,1.1-3,2.4-3.7c1.1-0.6,2.6-0.9,4.6-0.9c2.1,0,3.5,0.2,4.4,0.6
		c1.1,0.5,1.7,1.6,1.7,3.1c0,0.2,0,0.5,0,0.7c0,0.3-0.1,0.5-0.1,0.8l-1.7,9.7h-3.5l0.2-0.7c0,0-0.9,0.9-4.9,0.9
		c-1.6,0-2.8-0.3-3.6-0.8c-0.8-0.5-1.1-1.3-1.1-2.5c0-0.4,0.1-0.9,0.2-1.5c0.3-1.7,0.9-2.8,1.8-3.5c1-0.7,2.5-1,4.7-1
		c0,0,3.8,0,4.1,1.4l0.3-2c0.1-0.4,0.1-0.8,0.1-1.2c0-0.7-0.2-1.2-0.6-1.5c-0.4-0.3-1.1-0.4-2.2-0.4c-1.1,0-1.8,0.2-2.3,0.5
		C132.6,23.2,132.3,23.8,132.2,24.7 M134.1,28.5c-1.3,0-2.1,0.2-2.7,0.7c-0.5,0.4-0.8,1.2-0.8,2.3c0,0.6,0.2,1,0.6,1.2
		c0.4,0.2,1.1,0.3,2.1,0.3c1.4,0,2.4-0.2,2.9-0.6c0.7-0.4,1-1.2,1-2.3c0-0.6-0.2-1-0.7-1.2C136,28.6,135.2,28.5,134.1,28.5"/>
	<path class="st0" d="M148.3,35.4c-1.6,0.1-3.1-0.4-3.9-1.2c-0.7-0.7-1-1.8-1-3.2c0-0.9,0.1-2,0.4-3.5c0.4-2.5,1.1-4.3,2.1-5.4
		c1.1-1.3,2.8-1.9,5.2-1.9c1.1,0,1.9,0.2,2.6,0.5c0.7,0.3,1.2,0.4,1.5,1.2l1.4-7.8h3.5l-3.7,21.1h-3.5l0.2-0.7
		C151.6,35.4,149.9,35.4,148.3,35.4z M151.5,22.9c-1.3,0-2.2,0.3-2.8,0.9c-0.6,0.7-1.1,2-1.4,4c-0.2,1.1-0.3,2-0.3,2.5
		c0,1,0.2,1.6,0.6,1.9c0.4,0.3,1.1,0.5,2.1,0.5c1.3,0,2.3-0.3,2.9-1c0.6-0.6,1.1-2,1.4-4c0.2-1,0.3-1.8,0.3-2.4c0-1-0.2-1.6-0.6-1.9
		C153.2,23.1,152.5,22.9,151.5,22.9"/>
</g>
<g id="Graphic">
	<path class="st0" d="M25.8,35.2c0,0,7.8,3.4,4.3,4.8c-5.6,1.9-12.8,1.6-19.2,0c-4.5-1.5,6-4.8,6-4.8s-10.4,0.3-15.2-2
		c-2.5-1.2-1.8-7.2-0.3-12.4c-0.1,0.5-0.1,1-0.2,1.4c-0.3,1.9-0.4,3.8-0.4,5.3c0.1,1.5-0.4,3.9,5,4.3c5.9,0.7,16.9,1.2,22.9-3.4
		c3.9-3,5.6-8.7,6-12.9c0.4-4.1,0.2-9.3,0.2-9.3c1.9,0.1,3.3,0.9,3.5,1.9C43.4,33.5,25.8,35.2,25.8,35.2"/>
	<path class="st0" d="M23.7,23.4c-0.5,2.6-1.6,4.8-2.5,6.1c4.2-0.5,7.3-2.9,9.4-7.4C29,23.1,26.7,23.7,23.7,23.4"/>
	<path class="st0" d="M34.6,5"/>
	<g>
		<path class="st0" d="M28.7,10.4c0.9,0.1,1.7-0.5,1.8-1.3c0.1-0.8-0.5-1.6-1.4-1.7c-0.2,0-0.4,0-0.7,0c-0.3-0.6-0.4-1.4-0.3-2.3
			c0.1-0.4,0.2-0.8,0.3-1.2c0.6-1.5,1.7-2.1,2.3-2c0.2,0,0.3,0.1,0.4,0.2c0.6,0.3,1.1,1.4,1,2.8l0,0.4c0.8-0.1,1.4-0.1,1.8-0.1
			c0.1-1.7-0.4-3.6-1.8-4.5c-0.4-0.2-0.8-0.4-1.2-0.4c-1.8-0.2-3.4,1.2-4.2,3.2c-0.2,0.5-0.4,1.1-0.4,1.7c-0.2,1.5,0.1,3,0.9,4.1
			C27.4,9.7,27.9,10.3,28.7,10.4z"/>
		<path class="st0" d="M20,11.8c0.7,0.1,1.4-0.5,1.5-1.2c0.1-0.8-0.4-1.5-1.2-1.6c-0.2,0-0.4,0-0.5,0c-0.2-0.5-0.3-1.3-0.2-2.1
			c0.1-0.4,0.1-0.8,0.3-1.2c0.5-1.4,1.4-2,2-1.9c0.1,0,0.2,0.1,0.4,0.1C22.6,4.3,23,5.3,23,6.4c0.5-0.1,1-0.2,1.5-0.3
			c0.1-1.6-0.3-2.8-1.5-3.6c-0.3-0.2-0.6-0.3-1-0.4c-1.5-0.2-2.9,1.1-3.6,3c-0.2,0.5-0.3,1-0.4,1.6c-0.2,1.4,0,2.8,0.7,3.8
			C18.8,11.2,19.3,11.7,20,11.8z"/>
		<path class="st0" d="M12.1,13.5c0.6,0.1,1.1-0.4,1.2-1.2c0.1-0.7-0.3-1.4-0.9-1.4c-0.2,0-0.3,0-0.4,0.1c-0.2-0.5-0.2-1.2-0.1-1.9
			c0-0.4,0.1-0.7,0.3-1.1c0.4-1.3,1.2-1.9,1.6-1.8c0.1,0,0.2,0,0.3,0.1c0.3,0.2,0.6,1,0.6,2C15,8.2,15.4,8.1,15.8,8
			c-0.1-1.4-0.2-2.4-1.1-3.1c-0.2-0.2-0.5-0.3-0.8-0.3c-1.2-0.1-2.3,1.1-2.9,2.8c-0.2,0.5-0.3,1-0.3,1.5c-0.2,1.3,0,2.6,0.5,3.5
			C11.2,12.9,11.6,13.4,12.1,13.5z"/>
		<path class="st0" d="M5.7,15.4c0.4,0.1,0.9-0.4,1-1c0.1-0.6-0.2-1.2-0.7-1.2c-0.1,0-0.2,0-0.3,0.1c-0.1-0.4-0.2-1-0.1-1.7
			c0-0.3,0.1-0.6,0.2-0.9C6.1,9.4,6.7,8.9,7,9c0.1,0,0.1,0,0.2,0.1c0.2,0.2,0.4,0.7,0.4,1.4c0.3-0.1,0.6-0.2,0.9-0.4
			c0-0.9-0.3-1.8-0.8-2.3C7.6,7.8,7.4,7.7,7.2,7.7c-0.9-0.1-1.8,1-2.3,2.5c-0.1,0.4-0.2,0.8-0.3,1.3c-0.1,1.1,0,2.2,0.4,3
			C5,14.9,5.3,15.3,5.7,15.4z"/>
	</g>
</g>
<g>
	<path class="st0" d="M15.5,49.9v6.8h-1.2v-5.8h-3.2v5.8H9.8v-6.8H15.5z"/>
	<path class="st0" d="M23.6,53.2c0,2.5-1.7,3.6-3.4,3.6c-1.8,0-3.2-1.3-3.2-3.5c0-2.3,1.5-3.6,3.4-3.6
		C22.3,49.7,23.6,51.2,23.6,53.2z M18.2,53.3c0,1.5,0.9,2.6,2.1,2.6c1.2,0,2.1-1.1,2.1-2.6c0-1.1-0.6-2.6-2-2.6
		C18.8,50.7,18.2,52,18.2,53.3z"/>
	<path class="st0" d="M25.2,49.9h1.5l1.2,3.4c0.2,0.5,0.5,1.3,0.6,1.9h0c0.2-0.5,0.5-1.6,0.8-2.3l1.1-3H32l0.5,6.8h-1.2l-0.2-3.2
		c0-0.7-0.1-1.6-0.1-2.4h0c-0.2,0.6-0.4,1.2-0.7,2.2l-1.3,3.4H28l-1.2-3.3c-0.2-0.6-0.5-1.6-0.7-2.3h-0.1c0,0.8-0.1,1.7-0.1,2.4
		l-0.2,3.2h-1.1L25.2,49.9z"/>
	<path class="st0" d="M40.2,53.2c0,2.5-1.7,3.6-3.4,3.6c-1.8,0-3.2-1.3-3.2-3.5c0-2.3,1.5-3.6,3.4-3.6
		C38.9,49.7,40.2,51.2,40.2,53.2z M34.8,53.3c0,1.5,0.9,2.6,2.1,2.6c1.2,0,2.1-1.1,2.1-2.6c0-1.1-0.6-2.6-2-2.6
		C35.5,50.7,34.8,52,34.8,53.3z"/>
	<path class="st0" d="M45.9,49.9v1H43v5.8h-1.2v-6.8H45.9z"/>
	<path class="st0" d="M50.7,56.7l-0.1-0.9h0c-0.4,0.5-1.1,1-2.1,1c-1.4,0-2.1-1-2.1-1.9c0-1.6,1.5-2.5,4.1-2.5v-0.1
		c0-0.6-0.2-1.6-1.5-1.6c-0.6,0-1.3,0.2-1.8,0.5l-0.3-0.8c0.6-0.4,1.4-0.6,2.2-0.6c2.1,0,2.6,1.4,2.6,2.8V55c0,0.6,0,1.2,0.1,1.6
		H50.7z M50.5,53.2c-1.3,0-2.9,0.2-2.9,1.5c0,0.8,0.5,1.2,1.2,1.2c0.9,0,1.4-0.6,1.6-1.1c0-0.1,0.1-0.3,0.1-0.4V53.2z"/>
	<path class="st0" d="M54.4,53.5c0,1.7,1.1,2.4,2.3,2.4c0.9,0,1.4-0.2,1.9-0.4l0.2,0.9c-0.4,0.2-1.2,0.4-2.3,0.4
		c-2.1,0-3.3-1.4-3.3-3.4c0-2,1.2-3.7,3.2-3.7c2.2,0,2.8,1.9,2.8,3.2c0,0.3,0,0.4,0,0.6H54.4z M58,52.6c0-0.8-0.3-2-1.7-2
		c-1.2,0-1.8,1.1-1.9,2H58z"/>
	<path class="st0" d="M65.2,49.9v1h-2.1v5.8h-1.2v-5.8h-2.1v-1H65.2z"/>
	<path class="st0" d="M69.9,52.7h0.6c1,0,1.7-0.5,1.7-1.1c0-0.6-0.5-1-1.3-1c-0.5,0-1.2,0.2-1.6,0.5L69,50.4
		c0.7-0.4,1.5-0.6,2.3-0.6c1,0,2.3,0.5,2.3,1.8c0,0.8-0.8,1.4-1.5,1.5v0c1,0.1,1.8,0.7,1.8,1.7c0,1.5-1.5,2-2.9,2
		c-0.8,0-1.6-0.2-2.2-0.5l0.3-0.8c0.5,0.3,1.1,0.5,1.8,0.5c1,0,1.7-0.5,1.7-1.2c0-0.9-1-1.2-2-1.2h-0.6V52.7z"/>
	<path class="st0" d="M79.2,56.7l-0.1-0.9h0c-0.4,0.5-1.1,1-2.1,1c-1.4,0-2.1-1-2.1-1.9c0-1.6,1.5-2.5,4.1-2.5v-0.1
		c0-0.6-0.2-1.6-1.5-1.6c-0.6,0-1.3,0.2-1.8,0.5l-0.3-0.8c0.6-0.4,1.4-0.6,2.2-0.6c2.1,0,2.6,1.4,2.6,2.8V55c0,0.6,0,1.2,0.1,1.6
		H79.2z M79,53.2c-1.3,0-2.9,0.2-2.9,1.5c0,0.8,0.5,1.2,1.2,1.2c0.9,0,1.4-0.6,1.6-1.1c0-0.1,0.1-0.3,0.1-0.4V53.2z"/>
	<path class="st0" d="M82.2,52.1c0-0.9,0-1.6-0.1-2.2h1.1l0.1,1.2h0c0.5-0.8,1.3-1.3,2.4-1.3c1.6,0,2.9,1.4,2.9,3.4
		c0,2.4-1.5,3.6-3.1,3.6c-0.9,0-1.7-0.4-2.1-1.1h0v3.7h-1.2V52.1z M83.4,53.9c0,0.2,0,0.4,0.1,0.5c0.2,0.9,1,1.4,1.8,1.4
		c1.3,0,2.1-1.1,2.1-2.6c0-1.4-0.7-2.5-2-2.5c-0.8,0-1.6,0.6-1.9,1.5c0,0.2-0.1,0.3-0.1,0.5V53.9z"/>
	<path class="st0" d="M93.9,56.7l-0.1-0.9h0c-0.4,0.5-1.1,1-2.1,1c-1.4,0-2.1-1-2.1-1.9c0-1.6,1.5-2.5,4.1-2.5v-0.1
		c0-0.6-0.2-1.6-1.5-1.6c-0.6,0-1.3,0.2-1.8,0.5l-0.3-0.8c0.6-0.4,1.4-0.6,2.2-0.6c2.1,0,2.6,1.4,2.6,2.8V55c0,0.6,0,1.2,0.1,1.6
		H93.9z M93.7,53.2c-1.3,0-2.9,0.2-2.9,1.5c0,0.8,0.5,1.2,1.2,1.2c0.9,0,1.4-0.6,1.6-1.1c0-0.1,0.1-0.3,0.1-0.4V53.2z"/>
	<path class="st0" d="M102,47.6c-0.4,0.1-1,0.2-1.4,0.3c-1.1,0.2-1.9,0.5-2.4,1.3c-0.4,0.6-0.7,1.5-0.7,2.2h0c0.4-1,1.4-1.5,2.4-1.5
		c1.7,0,2.9,1.2,2.9,3.3c0,2.2-1.1,3.6-3.1,3.6c-2.4,0-3.2-2.3-3.2-4.5c0-1.5,0.3-2.8,1.1-3.8c0.7-0.9,1.6-1.4,2.9-1.6
		c0.5-0.1,1.2-0.2,1.7-0.4L102,47.6z M99.6,50.8c-0.7,0-1.2,0.4-1.5,0.9c-0.2,0.4-0.3,0.9-0.3,1.4c0,1.1,0.5,2.7,1.9,2.7
		c1.4,0,1.9-1.3,1.9-2.6C101.5,52.2,101,50.8,99.6,50.8z"/>
	<path class="st0" d="M108,56.7l-0.1-0.9h0c-0.4,0.5-1.1,1-2.1,1c-1.4,0-2.1-1-2.1-1.9c0-1.6,1.5-2.5,4.1-2.5v-0.1
		c0-0.6-0.2-1.6-1.5-1.6c-0.6,0-1.3,0.2-1.8,0.5l-0.3-0.8c0.6-0.4,1.4-0.6,2.2-0.6c2.1,0,2.6,1.4,2.6,2.8V55c0,0.6,0,1.2,0.1,1.6
		H108z M107.8,53.2c-1.3,0-2.9,0.2-2.9,1.5c0,0.8,0.5,1.2,1.2,1.2c0.9,0,1.4-0.6,1.6-1.1c0-0.1,0.1-0.3,0.1-0.4V53.2z"/>
	<path class="st0" d="M115.5,49.9v1h-2.1v5.8h-1.2v-5.8h-2.1v-1H115.5z"/>
	<path class="st0" d="M117.8,49.9v2.3c0.3-0.1,0.7-0.1,1.1-0.1c1.5,0,2.9,0.6,2.9,2.3c0,0.7-0.3,1.2-0.7,1.6
		c-0.7,0.6-1.8,0.8-2.7,0.8c-0.7,0-1.3,0-1.8-0.1v-6.8H117.8z M117.8,55.8c0.2,0,0.5,0.1,0.9,0.1c0.9,0,2-0.4,2-1.4
		c0-1.1-1-1.4-1.9-1.4c-0.4,0-0.7,0-0.9,0.1V55.8z M123.9,49.9v6.8h-1.2v-6.8H123.9z"/>
	<path class="st0" d="M125.9,50c0.5-0.1,1.4-0.2,2.2-0.2c1.1,0,3,0.2,3,1.7c0,0.8-0.6,1.4-1.4,1.5v0c1,0.1,1.7,0.7,1.7,1.7
		c0,1.8-2.2,2-3.6,2c-0.8,0-1.5-0.1-1.9-0.1V50z M127,55.9c0.4,0,0.6,0.1,1,0.1c0.8,0,2.1-0.2,2.1-1.2c0-1-1-1.2-2.2-1.2H127V55.9z
		 M127,52.7h0.9c0.9,0,1.8-0.3,1.8-1.1c0-0.7-0.6-1-1.8-1c-0.4,0-0.7,0-1,0.1V52.7z"/>
	<path class="st0" d="M136.6,56.7l-0.1-0.9h0c-0.4,0.5-1.1,1-2.1,1c-1.4,0-2.1-1-2.1-1.9c0-1.6,1.5-2.5,4.1-2.5v-0.1
		c0-0.6-0.2-1.6-1.5-1.6c-0.6,0-1.3,0.2-1.8,0.5l-0.3-0.8c0.6-0.4,1.4-0.6,2.2-0.6c2.1,0,2.6,1.4,2.6,2.8V55c0,0.6,0,1.2,0.1,1.6
		H136.6z M136.5,53.2c-1.3,0-2.9,0.2-2.9,1.5c0,0.8,0.5,1.2,1.2,1.2c0.9,0,1.4-0.6,1.6-1.1c0-0.1,0.1-0.3,0.1-0.4V53.2z"/>
	<path class="st0" d="M144.1,49.9v1H142v5.8h-1.2v-5.8h-2.1v-1H144.1z"/>
	<path class="st0" d="M146.4,49.9v2.3c0.3-0.1,0.8-0.1,1.1-0.1c1.5,0,3.1,0.5,3.1,2.3c0,0.7-0.3,1.2-0.7,1.6
		c-0.7,0.6-1.9,0.8-2.9,0.8c-0.7,0-1.3,0-1.8-0.1v-6.8H146.4z M146.4,55.8c0.2,0,0.5,0.1,0.9,0.1c0.9,0,2.1-0.3,2.1-1.4
		c0-1.2-1.2-1.4-2.1-1.4c-0.3,0-0.6,0-0.9,0.1V55.8z"/>
	<path class="st0" d="M44.8,66.7v2.7H48v-2.7h1.2v6.8H48v-3.1h-3.2v3.1h-1.2v-6.8H44.8z"/>
	<path class="st0" d="M55,73.5l-0.1-0.9h0c-0.4,0.5-1.1,1-2.1,1c-1.4,0-2.1-1-2.1-1.9c0-1.6,1.5-2.5,4.1-2.5V69
		c0-0.6-0.2-1.6-1.5-1.6c-0.6,0-1.3,0.2-1.8,0.5l-0.3-0.8c0.6-0.4,1.4-0.6,2.2-0.6c2.1,0,2.6,1.4,2.6,2.8v2.5c0,0.6,0,1.2,0.1,1.6
		H55z M54.8,70c-1.3,0-2.9,0.2-2.9,1.5c0,0.8,0.5,1.2,1.2,1.2c0.9,0,1.4-0.6,1.6-1.1c0-0.1,0.1-0.3,0.1-0.4V70z"/>
	<path class="st0" d="M65.8,73.2c-0.3,0.2-1,0.4-1.9,0.4c-2,0-3.4-1.4-3.4-3.5c0-2.1,1.4-3.6,3.6-3.6c0.7,0,1.4,0.2,1.7,0.4l-0.3,1
		c-0.3-0.2-0.8-0.3-1.4-0.3c-1.6,0-2.4,1.1-2.4,2.6c0,1.6,1,2.5,2.4,2.5c0.7,0,1.2-0.2,1.5-0.3L65.8,73.2z"/>
	<path class="st0" d="M73.3,70c0,2.5-1.7,3.6-3.4,3.6c-1.8,0-3.2-1.3-3.2-3.5c0-2.3,1.5-3.6,3.4-3.6C72,66.5,73.3,68,73.3,70z
		 M67.9,70.1c0,1.5,0.9,2.6,2.1,2.6c1.2,0,2.1-1.1,2.1-2.6c0-1.1-0.6-2.6-2-2.6C68.6,67.5,67.9,68.8,67.9,70.1z"/>
	<path class="st0" d="M80,64.4c-0.4,0.1-1,0.2-1.4,0.3c-1.1,0.2-1.9,0.5-2.4,1.3c-0.4,0.6-0.7,1.5-0.7,2.2h0c0.4-1,1.4-1.5,2.4-1.5
		c1.7,0,2.9,1.2,2.9,3.3c0,2.2-1.1,3.6-3.1,3.6c-2.4,0-3.2-2.3-3.2-4.5c0-1.5,0.3-2.8,1.1-3.8c0.7-0.9,1.6-1.4,2.9-1.6
		c0.5-0.1,1.2-0.2,1.7-0.4L80,64.4z M77.6,67.6c-0.7,0-1.2,0.4-1.5,0.9c-0.2,0.4-0.3,0.9-0.3,1.4c0,1.1,0.5,2.7,1.9,2.7
		c1.4,0,1.9-1.3,1.9-2.6C79.5,69,79,67.6,77.6,67.6z"/>
	<path class="st0" d="M83.4,66.7V69c0.3-0.1,0.7-0.1,1.1-0.1c1.5,0,2.9,0.6,2.9,2.3c0,0.7-0.3,1.2-0.7,1.6c-0.7,0.6-1.8,0.8-2.7,0.8
		c-0.7,0-1.3,0-1.8-0.1v-6.8H83.4z M83.4,72.6c0.2,0,0.5,0.1,0.9,0.1c0.9,0,2-0.4,2-1.4c0-1.1-1-1.4-1.9-1.4c-0.4,0-0.7,0-0.9,0.1
		V72.6z M89.6,66.7v6.8h-1.2v-6.8H89.6z"/>
	<path class="st0" d="M96.1,66.7v1H94v5.8h-1.2v-5.8h-2.1v-1H96.1z"/>
	<path class="st0" d="M98.3,66.7v2.9c0,1.1,0,1.8-0.1,2.7l0,0c0.4-0.8,0.6-1.3,1.1-2.1l2.1-3.5h1.4v6.8h-1.2v-2.9
		c0-1.1,0-1.7,0.1-2.8h0c-0.4,0.9-0.7,1.4-1.1,2.1c-0.6,1.1-1.4,2.4-2.1,3.5h-1.4v-6.8H98.3z"/>
	<path class="st0" d="M109.9,73.5h-1.2v-2.8h-0.9c-0.5,0-0.9,0.1-1.1,0.4c-0.5,0.4-0.7,1.2-1,1.9c-0.1,0.2-0.2,0.4-0.3,0.6h-1.3
		c0.2-0.2,0.3-0.5,0.4-0.8c0.3-0.7,0.5-1.5,1.1-2c0.2-0.2,0.5-0.3,0.8-0.4v0c-0.9-0.1-1.8-0.6-1.8-1.7c0-0.7,0.4-1.2,0.9-1.5
		c0.6-0.3,1.4-0.5,2.3-0.5c0.8,0,1.6,0.1,2.2,0.1V73.5z M108.7,67.5c-0.3,0-0.6-0.1-1-0.1c-0.8,0-1.8,0.2-1.8,1.2
		c0,0.9,1.1,1.2,1.8,1.2c0.5,0,0.8,0,1.1,0V67.5z"/>
	<path class="st0" d="M112.5,66.7l1,1.5c0.3,0.4,0.5,0.7,0.7,1.1h0c0.2-0.4,0.4-0.8,0.7-1.1l1-1.4h1.3l-2.3,3.3l2.4,3.5h-1.4l-1-1.5
		c-0.3-0.4-0.5-0.8-0.7-1.2h0c-0.2,0.4-0.5,0.8-0.7,1.2l-1,1.5H111l2.4-3.5l-2.3-3.3H112.5z"/>
</g>
</svg>
