<?xml version="1.0" encoding="utf-8"?>
<!-- Generator: Adobe Illustrator 21.1.0, SVG Export Plug-In . SVG Version: 6.00 Build 0)  -->
<svg version="1.1" id="Layer_1" xmlns="http://www.w3.org/2000/svg" xmlns:xlink="http://www.w3.org/1999/xlink" x="0px" y="0px"
	 viewBox="0 0 160 60.7" style="enable-background:new 0 0 160 60.7;" xml:space="preserve">
<style type="text/css">
	.st0{fill:#414145;}
	.st1{fill:none;}
	.st2{display:none;}
	.st3{display:inline;fill:#414145;}
	.st4{font-family:'Arsenal-Bold';}
	.st5{font-size:14px;}
</style>
<g id="Type_Italic">
	<polygon class="st0" points="54.9,17.1 51.8,35.1 48.2,35.1 51.4,17.1 44.9,17.1 45.5,14 61.9,14 61.3,17.1 	"/>
	<path class="st0" d="M66,20.3l-2.6,14.9h-3.5l2.6-14.9H66z M67.1,14l-0.5,3.1h-3.5l0.5-3.1H67.1z"/>
	<path class="st0" d="M72.7,20.3l-0.4,2.4c0.7-0.9,1.4-1.5,2.2-1.9c0.8-0.4,1.7-0.6,2.7-0.6c1.6,0,2.7,0.3,3.4,0.8
		c0.5,0.4,0.8,1,0.8,1.8c0.6-1,1.2-1.6,2-2c0.8-0.4,1.8-0.5,2.9-0.5c1.6,0,2.7,0.3,3.4,0.8c0.7,0.5,1.1,1.4,1.1,2.6
		c0,0.5-0.1,1.1-0.2,1.7l-1.7,9.9h-3.5l1.6-9.2c0-0.3,0.1-0.5,0.1-0.8c0-0.3,0.1-0.5,0.1-0.6c0-0.6-0.2-1-0.5-1.2
		c-0.3-0.2-0.9-0.4-1.8-0.4c-0.9,0-1.7,0.2-2.3,0.6c-0.8,0.6-1.4,1.5-1.6,2.8l-1.5,8.8H76l1.6-9.3c0.1-0.3,0.1-0.6,0.1-0.8
		c0-0.2,0.1-0.5,0.1-0.6c0-0.5-0.2-0.9-0.5-1.1c-0.3-0.2-0.9-0.3-1.8-0.3c-1.2,0-2.1,0.3-2.7,0.9c-0.6,0.6-1,1.5-1.2,2.7l-1.5,8.7
		h-3.5l2.6-14.9H72.7z"/>
	<path class="st0" d="M102.4,30.5h3.5c-0.2,2-1.1,3.3-2.5,4.1c-1.1,0.6-2.9,0.9-5.2,0.9c-2,0-3.5-0.3-4.4-1
		c-0.9-0.7-1.3-1.9-1.3-3.6c0-1,0.1-1.7,0.3-3c0.5-2.8,1.3-4.8,2.5-5.9c1.2-1.1,3.1-1.7,5.6-1.7c2.1,0,3.6,0.4,4.5,1.1
		c0.9,0.8,1.4,2,1.4,3.6c0,0.4,0,0.8-0.1,1.3c-0.1,0.5-0.2,1.3-0.3,2.2H96.2c-0.2,0.9-0.3,1.6-0.3,2.2c0,0.8,0.2,1.4,0.6,1.7
		c0.4,0.3,1.1,0.5,2.1,0.5c1.3,0,2.1-0.1,2.7-0.4C102,32.1,102.3,31.4,102.4,30.5 M103.2,26.2c0-0.2,0.1-0.4,0.1-0.6
		c0-0.2,0-0.4,0-0.7c0-0.8-0.2-1.4-0.7-1.7c-0.4-0.3-1.2-0.5-2.2-0.5c-1.2,0-2.1,0.3-2.7,0.8c-0.6,0.5-1,1.4-1.2,2.7H103.2z"/>
	<path class="st0" d="M112.6,28.2l-1.2,6.9h-3.7l3.7-21.1h9c2.4,0,4.1,0.3,5.1,0.9c1.2,0.7,1.8,2,1.8,3.8c0,0.6-0.1,1.4-0.2,2.3
		c-0.5,2.8-1.4,4.7-2.7,5.8c-1.2,1-3.3,1.5-6.1,1.5H112.6z M114.5,17.2l-1.3,7.9h5.6c1.4,0,2.5-0.2,3.1-0.7c0.6-0.5,1.1-1.4,1.3-2.8
		c0.1-0.2,0.1-0.8,0.1-1.1c0-0.2,0-0.8,0-1c0-0.9-0.2-1.5-0.7-1.9c-0.5-0.3-1.3-0.5-2.5-0.5H114.5z"/>
	<path class="st0" d="M132.2,24.7h-3.5c0.3-1.7,1.1-3,2.4-3.7c1.1-0.6,2.6-0.9,4.6-0.9c2.1,0,3.5,0.2,4.4,0.6
		c1.1,0.5,1.7,1.6,1.7,3.1c0,0.2,0,0.5,0,0.7c0,0.3-0.1,0.5-0.1,0.8l-1.7,9.7h-3.5l0.2-0.7c0,0-0.9,0.9-4.9,0.9
		c-1.6,0-2.8-0.3-3.6-0.8c-0.8-0.5-1.1-1.3-1.1-2.5c0-0.4,0.1-0.9,0.2-1.5c0.3-1.7,0.9-2.8,1.8-3.5c1-0.7,2.5-1,4.7-1
		c0,0,3.8,0,4.1,1.4l0.3-2c0.1-0.4,0.1-0.8,0.1-1.2c0-0.7-0.2-1.2-0.6-1.5c-0.4-0.3-1.1-0.4-2.2-0.4c-1.1,0-1.8,0.2-2.3,0.5
		C132.6,23.2,132.3,23.8,132.2,24.7 M134.1,28.5c-1.3,0-2.1,0.2-2.7,0.7c-0.5,0.4-0.8,1.2-0.8,2.3c0,0.6,0.2,1,0.6,1.2
		c0.4,0.2,1.1,0.3,2.1,0.3c1.4,0,2.4-0.2,2.9-0.6c0.7-0.4,1-1.2,1-2.3c0-0.6-0.2-1-0.7-1.2C136,28.6,135.2,28.5,134.1,28.5"/>
	<path class="st0" d="M148.3,35.4c-1.6,0.1-3.1-0.4-3.9-1.2c-0.7-0.7-1-1.8-1-3.2c0-0.9,0.1-2,0.4-3.5c0.4-2.5,1.1-4.3,2.1-5.4
		c1.1-1.3,2.8-1.9,5.2-1.9c1.1,0,1.9,0.2,2.6,0.5c0.7,0.3,1.2,0.4,1.5,1.2l1.4-7.8h3.5l-3.7,21.1h-3.5l0.2-0.7
		C151.6,35.4,149.9,35.4,148.3,35.4z M151.5,22.9c-1.3,0-2.2,0.3-2.8,0.9c-0.6,0.7-1.1,2-1.4,4c-0.2,1.1-0.3,2-0.3,2.5
		c0,1,0.2,1.6,0.6,1.9c0.4,0.3,1.1,0.5,2.1,0.5c1.3,0,2.3-0.3,2.9-1c0.6-0.6,1.1-2,1.4-4c0.2-1,0.3-1.8,0.3-2.4c0-1-0.2-1.6-0.6-1.9
		C153.2,23.1,152.5,22.9,151.5,22.9"/>
</g>
<g id="Graphic">
	<path class="st0" d="M25.8,35.2c0,0,7.8,3.4,4.3,4.8c-5.6,1.9-12.8,1.6-19.2,0c-4.5-1.5,6-4.8,6-4.8s-10.4,0.3-15.2-2
		c-2.5-1.2-1.8-7.2-0.3-12.4c-0.1,0.5-0.1,1-0.2,1.4c-0.3,1.9-0.4,3.8-0.4,5.3c0.1,1.5-0.4,3.9,5,4.3c5.9,0.7,16.9,1.2,22.9-3.4
		c3.9-3,5.6-8.7,6-12.9c0.4-4.1,0.2-9.3,0.2-9.3c1.9,0.1,3.3,0.9,3.5,1.9C43.4,33.5,25.8,35.2,25.8,35.2"/>
	<path class="st0" d="M23.7,23.4c-0.5,2.6-1.6,4.8-2.5,6.1c4.2-0.5,7.3-2.9,9.4-7.4C29,23.1,26.7,23.7,23.7,23.4"/>
	<path class="st0" d="M34.6,5"/>
	<g>
		<path class="st0" d="M28.7,10.4c0.9,0.1,1.7-0.5,1.8-1.3c0.1-0.8-0.5-1.6-1.4-1.7c-0.2,0-0.4,0-0.7,0c-0.3-0.6-0.4-1.4-0.3-2.3
			c0.1-0.4,0.2-0.8,0.3-1.2c0.6-1.5,1.7-2.1,2.3-2c0.2,0,0.3,0.1,0.4,0.2c0.6,0.3,1.1,1.4,1,2.8l0,0.4c0.8-0.1,1.4-0.1,1.8-0.1
			c0.1-1.7-0.4-3.6-1.8-4.5c-0.4-0.2-0.8-0.4-1.2-0.4c-1.8-0.2-3.4,1.2-4.2,3.2c-0.2,0.5-0.4,1.1-0.4,1.7c-0.2,1.5,0.1,3,0.9,4.1
			C27.4,9.7,27.9,10.3,28.7,10.4z"/>
		<path class="st0" d="M20,11.8c0.7,0.1,1.4-0.5,1.5-1.2c0.1-0.8-0.4-1.5-1.2-1.6c-0.2,0-0.4,0-0.5,0c-0.2-0.5-0.3-1.3-0.2-2.1
			c0.1-0.4,0.1-0.8,0.3-1.2c0.5-1.4,1.4-2,2-1.9c0.1,0,0.2,0.1,0.4,0.1C22.6,4.3,23,5.3,23,6.4c0.5-0.1,1-0.2,1.5-0.3
			c0.1-1.6-0.3-2.8-1.5-3.6c-0.3-0.2-0.6-0.3-1-0.4c-1.5-0.2-2.9,1.1-3.6,3c-0.2,0.5-0.3,1-0.4,1.6c-0.2,1.4,0,2.8,0.7,3.8
			C18.8,11.2,19.3,11.7,20,11.8z"/>
		<path class="st0" d="M12.1,13.5c0.6,0.1,1.1-0.4,1.2-1.2c0.1-0.7-0.3-1.4-0.9-1.4c-0.2,0-0.3,0-0.4,0.1c-0.2-0.5-0.2-1.2-0.1-1.9
			c0-0.4,0.1-0.7,0.3-1.1c0.4-1.3,1.2-1.9,1.6-1.8c0.1,0,0.2,0,0.3,0.1c0.3,0.2,0.6,1,0.6,2C15,8.2,15.4,8.1,15.8,8
			c-0.1-1.4-0.2-2.4-1.1-3.1c-0.2-0.2-0.5-0.3-0.8-0.3c-1.2-0.1-2.3,1.1-2.9,2.8c-0.2,0.5-0.3,1-0.3,1.5c-0.2,1.3,0,2.6,0.5,3.5
			C11.2,12.9,11.6,13.4,12.1,13.5z"/>
		<path class="st0" d="M5.7,15.4c0.4,0.1,0.9-0.4,1-1c0.1-0.6-0.2-1.2-0.7-1.2c-0.1,0-0.2,0-0.3,0.1c-0.1-0.4-0.2-1-0.1-1.7
			c0-0.3,0.1-0.6,0.2-0.9C6.1,9.4,6.7,8.9,7,9c0.1,0,0.1,0,0.2,0.1c0.2,0.2,0.4,0.7,0.4,1.4c0.3-0.1,0.6-0.2,0.9-0.4
			c0-0.9-0.3-1.8-0.8-2.3C7.6,7.8,7.4,7.7,7.2,7.7c-0.9-0.1-1.8,1-2.3,2.5c-0.1,0.4-0.2,0.8-0.3,1.3c-0.1,1.1,0,2.2,0.4,3
			C5,14.9,5.3,15.3,5.7,15.4z"/>
	</g>
</g>
<rect x="0" y="46.7" class="st1" width="160" height="33.3"/>
<text transform="matrix(1 0 0 1 8.5312 56.6692)" class="st2"><tspan x="0" y="0" class="st3 st4 st5">помогает зарабатывать</tspan><tspan x="34" y="16.8" class="st3 st4 st5">на событиях</tspan></text>
<g>
	<path class="st0" d="M6.3,53.1h0.5c0.9,0,1.5-0.4,1.5-1c0-0.5-0.5-0.9-1.2-0.9c-0.5,0-1,0.2-1.5,0.4L5.5,51c0.6-0.4,1.3-0.5,2-0.5
		c0.9,0,2,0.4,2,1.6c0,0.7-0.7,1.2-1.4,1.4v0c0.9,0.1,1.6,0.6,1.6,1.5c0,1.3-1.3,1.8-2.6,1.8c-0.7,0-1.4-0.2-2-0.5l0.3-0.7
		c0.4,0.2,1,0.4,1.6,0.4c0.9,0,1.5-0.4,1.5-1c0-0.8-0.8-1-1.8-1H6.3V53.1z"/>
	<path class="st0" d="M14.6,56.6l-0.1-0.8h0c-0.3,0.5-1,0.9-1.8,0.9c-1.2,0-1.8-0.9-1.8-1.7c0-1.5,1.3-2.3,3.6-2.2v-0.1
		c0-0.5-0.1-1.4-1.4-1.4c-0.6,0-1.1,0.2-1.6,0.5L11.2,51c0.5-0.3,1.2-0.5,2-0.5c1.8,0,2.3,1.3,2.3,2.5v2.3c0,0.5,0,1,0.1,1.4H14.6z
		 M14.4,53.5c-1.2,0-2.6,0.2-2.6,1.4c0,0.7,0.5,1,1,1c0.8,0,1.3-0.5,1.5-1c0-0.1,0.1-0.2,0.1-0.3V53.5z"/>
	<path class="st0" d="M17.2,52.5c0-0.8,0-1.4,0-2h1l0,1h0c0.5-0.7,1.2-1.2,2.1-1.2c1.5,0,2.6,1.2,2.6,3.1c0,2.2-1.3,3.2-2.7,3.2
		c-0.8,0-1.5-0.4-1.9-1h0v3.3h-1.1V52.5z M18.3,54.1c0,0.2,0,0.3,0,0.5c0.2,0.8,0.9,1.3,1.6,1.3c1.2,0,1.8-1,1.8-2.3
		c0-1.2-0.6-2.2-1.8-2.2c-0.8,0-1.4,0.5-1.7,1.4c0,0.1-0.1,0.3-0.1,0.5V54.1z"/>
	<path class="st0" d="M27.7,56.6l-0.1-0.8h0c-0.3,0.5-1,0.9-1.8,0.9c-1.2,0-1.8-0.9-1.8-1.7c0-1.5,1.3-2.3,3.6-2.2v-0.1
		c0-0.5-0.1-1.4-1.4-1.4c-0.6,0-1.1,0.2-1.6,0.5L24.3,51c0.5-0.3,1.2-0.5,2-0.5c1.8,0,2.3,1.3,2.3,2.5v2.3c0,0.5,0,1,0.1,1.4H27.7z
		 M27.5,53.5c-1.2,0-2.6,0.2-2.6,1.4c0,0.7,0.5,1,1,1c0.8,0,1.3-0.5,1.5-1c0-0.1,0.1-0.2,0.1-0.3V53.5z"/>
	<path class="st0" d="M34.9,48.5c-0.3,0.1-0.9,0.2-1.3,0.3c-1,0.2-1.7,0.5-2.1,1.1c-0.4,0.5-0.6,1.4-0.7,2h0
		c0.4-0.9,1.2-1.4,2.1-1.4c1.5,0,2.6,1.1,2.6,3c0,2-1,3.2-2.8,3.2c-2.1,0-2.8-2-2.8-4c0-1.4,0.3-2.5,0.9-3.3
		c0.6-0.8,1.4-1.2,2.6-1.4c0.5-0.1,1.1-0.2,1.5-0.3L34.9,48.5z M32.8,51.4c-0.6,0-1.1,0.3-1.4,0.8c-0.2,0.4-0.3,0.8-0.3,1.3
		c0,1,0.5,2.4,1.7,2.4c1.2,0,1.7-1.2,1.7-2.3C34.5,52.6,34.1,51.4,32.8,51.4z"/>
	<path class="st0" d="M40.3,56.6l-0.1-0.8h0c-0.3,0.5-1,0.9-1.8,0.9c-1.2,0-1.8-0.9-1.8-1.7c0-1.5,1.3-2.3,3.6-2.2v-0.1
		c0-0.5-0.1-1.4-1.4-1.4c-0.6,0-1.1,0.2-1.6,0.5L36.9,51c0.5-0.3,1.2-0.5,2-0.5c1.8,0,2.3,1.3,2.3,2.5v2.3c0,0.5,0,1,0.1,1.4H40.3z
		 M40.2,53.5c-1.2,0-2.6,0.2-2.6,1.4c0,0.7,0.5,1,1,1c0.8,0,1.3-0.5,1.5-1c0-0.1,0.1-0.2,0.1-0.3V53.5z"/>
	<path class="st0" d="M47,50.6v0.9h-1.9v5.2H44v-5.2h-1.9v-0.9H47z"/>
	<path class="st0" d="M49,50.6v2.1c0.2,0,0.6-0.1,1-0.1c1.3,0,2.6,0.5,2.6,2c0,0.6-0.2,1.1-0.6,1.4c-0.7,0.6-1.6,0.7-2.4,0.7
		c-0.6,0-1.2,0-1.6-0.1v-6H49z M49,55.8c0.2,0,0.4,0.1,0.8,0.1c0.8,0,1.7-0.4,1.7-1.3c0-1-0.9-1.3-1.7-1.3c-0.3,0-0.6,0-0.8,0.1
		V55.8z M54.5,50.6v6h-1.1v-6H54.5z"/>
	<path class="st0" d="M56.2,50.6c0.4-0.1,1.2-0.1,1.9-0.1c1,0,2.7,0.2,2.7,1.5c0,0.8-0.6,1.2-1.3,1.4v0c0.9,0.1,1.5,0.6,1.5,1.5
		c0,1.6-2,1.8-3.2,1.8c-0.7,0-1.4,0-1.7-0.1V50.6z M57.3,55.9c0.3,0,0.5,0,0.9,0c0.7,0,1.8-0.2,1.8-1s-0.9-1.1-1.9-1.1h-0.8V55.9z
		 M57.3,53.1h0.8c0.8,0,1.6-0.2,1.6-0.9c0-0.6-0.5-0.9-1.6-0.9c-0.4,0-0.6,0-0.8,0V53.1z"/>
	<path class="st0" d="M65.9,56.6l-0.1-0.8h0c-0.3,0.5-1,0.9-1.8,0.9c-1.2,0-1.8-0.9-1.8-1.7c0-1.5,1.3-2.3,3.6-2.2v-0.1
		c0-0.5-0.1-1.4-1.4-1.4c-0.6,0-1.1,0.2-1.6,0.5L62.5,51c0.5-0.3,1.2-0.5,2-0.5c1.8,0,2.3,1.3,2.3,2.5v2.3c0,0.5,0,1,0.1,1.4H65.9z
		 M65.7,53.5c-1.2,0-2.6,0.2-2.6,1.4c0,0.7,0.5,1,1,1c0.8,0,1.3-0.5,1.5-1c0-0.1,0.1-0.2,0.1-0.3V53.5z"/>
	<path class="st0" d="M69.6,50.6v2.5c0,1,0,1.6-0.1,2.4l0,0c0.4-0.7,0.6-1.2,1-1.9l1.9-3.1h1.3v6h-1V54c0-1,0-1.5,0.1-2.5h0
		c-0.4,0.8-0.6,1.3-1,1.9c-0.6,0.9-1.2,2.1-1.9,3.2h-1.3v-6H69.6z M70.3,48.1c0,0.5,0.3,1,0.8,1c0.5,0,0.8-0.4,0.9-1h0.8
		c0,1-0.7,1.5-1.7,1.5c-1.1,0-1.5-0.7-1.6-1.5H70.3z"/>
	<path class="st0" d="M79.5,50.6v0.9h-1.9v5.2h-1.1v-5.2h-1.9v-0.9H79.5z"/>
	<path class="st0" d="M80.9,53.8c0,1.5,1,2.1,2.1,2.1c0.8,0,1.3-0.1,1.7-0.3l0.2,0.8c-0.4,0.2-1,0.4-2,0.4c-1.9,0-3-1.2-3-3
		c0-1.8,1.1-3.3,2.8-3.3c2,0,2.5,1.7,2.5,2.8c0,0.2,0,0.4,0,0.5H80.9z M84.2,53c0-0.7-0.3-1.8-1.5-1.8c-1.1,0-1.6,1-1.7,1.8H84.2z"
		/>
	<path class="st0" d="M90.3,50.6V53h2.9v-2.4h1.1v6h-1.1v-2.7h-2.9v2.7h-1.1v-6H90.3z"/>
	<path class="st0" d="M99.4,56.6l-0.1-0.8h0c-0.3,0.5-1,0.9-1.8,0.9c-1.2,0-1.8-0.9-1.8-1.7c0-1.5,1.3-2.3,3.6-2.2v-0.1
		c0-0.5-0.1-1.4-1.4-1.4c-0.6,0-1.1,0.2-1.6,0.5L96,51c0.5-0.3,1.2-0.5,2-0.5c1.8,0,2.3,1.3,2.3,2.5v2.3c0,0.5,0,1,0.1,1.4H99.4z
		 M99.2,53.5c-1.2,0-2.6,0.2-2.6,1.4c0,0.7,0.5,1,1,1c0.8,0,1.3-0.5,1.5-1c0-0.1,0.1-0.2,0.1-0.3V53.5z"/>
	<path class="st0" d="M109,56.4c-0.3,0.1-0.9,0.3-1.7,0.3c-1.8,0-3-1.2-3-3.1c0-1.9,1.3-3.2,3.2-3.2c0.7,0,1.2,0.2,1.5,0.3l-0.2,0.8
		c-0.3-0.1-0.7-0.3-1.3-0.3c-1.4,0-2.1,1-2.1,2.3c0,1.4,0.9,2.3,2.1,2.3c0.6,0,1-0.2,1.3-0.3L109,56.4z"/>
	<path class="st0" d="M115.7,53.5c0,2.2-1.5,3.2-3,3.2c-1.6,0-2.9-1.2-2.9-3.1c0-2,1.3-3.2,3-3.2C114.6,50.4,115.7,51.7,115.7,53.5z
		 M110.9,53.6c0,1.3,0.8,2.3,1.8,2.3c1,0,1.8-1,1.8-2.3c0-1-0.5-2.3-1.8-2.3S110.9,52.4,110.9,53.6z"/>
	<path class="st0" d="M121.7,48.5c-0.3,0.1-0.9,0.2-1.3,0.3c-1,0.2-1.7,0.5-2.1,1.1c-0.4,0.5-0.6,1.4-0.7,2h0
		c0.4-0.9,1.2-1.4,2.1-1.4c1.5,0,2.6,1.1,2.6,3c0,2-1,3.2-2.8,3.2c-2.1,0-2.8-2-2.8-4c0-1.4,0.3-2.5,0.9-3.3
		c0.6-0.8,1.4-1.2,2.6-1.4c0.5-0.1,1.1-0.2,1.5-0.3L121.7,48.5z M119.5,51.4c-0.6,0-1.1,0.3-1.4,0.8c-0.2,0.4-0.3,0.8-0.3,1.3
		c0,1,0.5,2.4,1.7,2.4c1.2,0,1.7-1.2,1.7-2.3C121.2,52.6,120.8,51.4,119.5,51.4z"/>
	<path class="st0" d="M124.8,50.6v2.1c0.2,0,0.6-0.1,1-0.1c1.3,0,2.6,0.5,2.6,2c0,0.6-0.2,1.1-0.6,1.4c-0.7,0.6-1.6,0.7-2.4,0.7
		c-0.6,0-1.2,0-1.6-0.1v-6H124.8z M124.8,55.8c0.2,0,0.5,0.1,0.8,0.1c0.8,0,1.7-0.4,1.7-1.3c0-1-0.9-1.3-1.7-1.3
		c-0.3,0-0.6,0-0.8,0.1V55.8z M130.2,50.6v6h-1.1v-6H130.2z"/>
	<path class="st0" d="M136.1,50.6v0.9h-1.9v5.2h-1.1v-5.2h-1.9v-0.9H136.1z"/>
	<path class="st0" d="M138.1,50.6v2.5c0,1,0,1.6-0.1,2.4l0,0c0.4-0.7,0.6-1.2,1-1.9l1.9-3.1h1.3v6h-1V54c0-1,0-1.5,0.1-2.5h0
		c-0.4,0.8-0.6,1.3-1,1.9c-0.6,0.9-1.2,2.1-1.9,3.2H137v-6H138.1z"/>
	<path class="st0" d="M148.4,56.6h-1.1v-2.5h-0.8c-0.5,0-0.8,0.1-1,0.3c-0.5,0.4-0.6,1.1-0.8,1.7c-0.1,0.2-0.2,0.3-0.2,0.5h-1.2
		c0.1-0.2,0.3-0.4,0.4-0.7c0.3-0.6,0.4-1.4,0.9-1.8c0.2-0.2,0.4-0.3,0.7-0.3v0c-0.8-0.1-1.6-0.6-1.6-1.5c0-0.6,0.3-1,0.8-1.3
		c0.5-0.3,1.2-0.4,2-0.4c0.7,0,1.4,0.1,1.9,0.1V56.6z M147.3,51.3c-0.3,0-0.5-0.1-0.9-0.1c-0.8,0-1.6,0.2-1.6,1c0,0.8,1,1,1.6,1
		c0.5,0,0.7,0,0.9,0V51.3z"/>
	<path class="st0" d="M150.7,50.6l0.9,1.3c0.2,0.3,0.4,0.7,0.6,1h0c0.2-0.4,0.4-0.7,0.6-1l0.8-1.3h1.2l-2.1,2.9l2.1,3.1h-1.2
		l-0.9-1.4c-0.2-0.3-0.4-0.7-0.6-1h0c-0.2,0.4-0.4,0.7-0.6,1l-0.9,1.4h-1.2l2.1-3.1l-2-3H150.7z"/>
</g>
</svg>
