<?xml version="1.0" encoding="UTF-8" standalone="no"?>
<svg width="163px" height="163px" viewBox="0 0 163 163" version="1.1" xmlns="http://www.w3.org/2000/svg" xmlns:xlink="http://www.w3.org/1999/xlink" xmlns:sketch="http://www.bohemiancoding.com/sketch/ns">
    <!-- Generator: Sketch 3.5.1 (25234) - http://www.bohemiancoding.com/sketch -->
    <title>Group 4</title>
    <desc>Created with Sketch.</desc>
    <defs></defs>
    <g id="Page-1" stroke="none" stroke-width="1" fill="none" fill-rule="evenodd" sketch:type="MSPage">
        <g id="Artboard-1" sketch:type="MSArtboardGroup" transform="translate(-243.000000, -526.000000)">
            <g id="Group-4" sketch:type="MSLayerGroup" transform="translate(243.000000, 526.000000)">
                <circle id="Oval-1" fill="#434347" sketch:type="MSShapeGroup" cx="81.5" cy="81.5" r="81.5"></circle>
                <g id="Graphic" transform="translate(33.000000, 30.000000)" fill="#FFFFFF" sketch:type="MSShapeGroup">
                    <path d="M64.4,87.5 C64.4,87.5 83.9,95.9 75,99.3 C61.2,104 43.3,103.3 27.4,99.3 C16.3,95.6 42.3,87.3 42.3,87.3 C42.3,87.3 16.4,88.2 4.5,82.3 C-1.8,79.2 0.1,64.4 3.6,51.6 C3.4,52.8 3.3,54 3.1,55.1 C2.5,59.9 2.1,64.6 2.1,68.3 C2.4,72.1 1.2,77.9 14.6,79 C29.3,81 56.5,82 71.5,70.7 C81.1,63.2 85.3,49.1 86.3,38.8 C87.3,28.5 86.8,15.6 86.8,15.6 C91.5,15.9 95,17.9 95.5,20.4 C108.2,83.2 64.4,87.5 64.4,87.5" id="Shape"></path>
                    <path d="M59.3,58.1 C58.1,64.6 55.3,69.9 53.2,73.3 C63.7,72 71.4,66 76.7,54.9 C72.4,57.5 66.7,58.8 59.3,58.1" id="Shape"></path>
                    <g id="Group" transform="translate(11.000000, 0.000000)">
                        <path d="M60.6,26 C62.8,26.3 64.8,24.8 65.1,22.8 C65.4,20.7 63.8,18.8 61.6,18.5 C61,18.4 60.5,18.5 60,18.6 C59.3,17.2 59,15.2 59.3,13 C59.4,12 59.7,10.9 60.1,9.9 C61.6,6.1 64.3,4.6 65.8,4.9 C66.2,5 66.5,5.1 66.9,5.3 C68.4,6.1 69.6,8.9 69.3,12.2 L69.1,13 C71.1,12.8 72.6,12.7 73.7,12.6 C73.9,8.3 72.7,3.6 69.2,1.4 C68.3,0.8 67.3,0.5 66.3,0.4 C61.7,-0.1 57.8,3.3 55.8,8.2 C55.3,9.6 54.9,11 54.7,12.4 C54.2,16.1 54.9,19.9 57,22.5 C57.2,24.3 58.7,25.8 60.6,26 L60.6,26 Z" id="Shape"></path>
                        <path d="M38.9,29.4 C40.7,29.6 42.4,28.3 42.7,26.4 C42.9,24.5 41.7,22.7 39.8,22.5 C39.3,22.4 38.9,22.5 38.4,22.6 C37.9,21.3 37.6,19.4 37.9,17.4 C38,16.4 38.3,15.5 38.6,14.5 C39.9,11 42.2,9.5 43.4,9.8 C43.7,9.8 44,9.9 44.3,10.2 C45.5,10.9 46.4,13.3 46.2,16.2 C47.5,16 48.8,15.8 50,15.6 C50.3,11.6 49.2,8.7 46.3,6.7 C45.7,6 44.9,5.7 44,5.5 C40.2,5.1 36.8,8.3 35.1,12.9 C34.6,14.2 34.3,15.5 34.1,16.8 C33.7,20.2 34.2,23.7 35.9,26.1 C36.1,27.8 37.3,29.2 38.9,29.4 L38.9,29.4 Z" id="Shape"></path>
                        <path d="M19.4,33.6 C20.9,33.8 22.2,32.5 22.5,30.7 C22.7,28.9 21.7,27.3 20.3,27.1 C19.9,27.1 19.6,27.1 19.2,27.2 C18.8,26 18.6,24.3 18.9,22.4 C19,21.5 19.2,20.6 19.5,19.7 C20.6,16.4 22.4,15 23.5,15.2 C23.8,15.2 24,15.3 24.2,15.5 C25.1,16.1 25.7,18.1 25.7,20.5 C26.7,20.2 27.7,20 28.7,19.7 C28.5,16.3 28.1,13.8 25.9,12.1 C25.3,11.6 24.6,11.4 24,11.3 C20.9,11 18.2,14 16.8,18.3 C16.4,19.5 16.1,20.7 16,21.9 C15.6,25.1 16,28.3 17.3,30.5 C17.1,32.2 18.1,33.4 19.4,33.6 L19.4,33.6 Z" id="Shape"></path>
                        <path d="M3.4,38.2 C4.5,38.4 5.6,37.2 5.8,35.7 C6,34.2 5.3,32.8 4.1,32.6 C3.8,32.6 3.5,32.6 3.3,32.7 C3,31.7 2.9,30.2 3.1,28.6 C3.2,27.8 3.4,27 3.6,26.3 C4.5,23.5 5.9,22.2 6.7,22.4 C6.9,22.4 7.1,22.5 7.2,22.7 C7.8,23.1 8.2,24.5 8.3,26.3 C9.1,26 9.8,25.7 10.6,25.4 C10.5,23.1 9.9,21 8.6,19.8 C8.2,19.4 7.7,19.2 7.1,19.1 C4.8,18.9 2.6,21.5 1.5,25.2 C1.2,26.2 1,27.3 0.8,28.3 C0.5,31.1 0.7,33.8 1.7,35.7 C1.7,37 2.4,38.1 3.4,38.2 L3.4,38.2 Z" id="Shape"></path>
                    </g>
                </g>
            </g>
        </g>
    </g>
</svg>